# xmcd
#
# Track frame offsets:
#	150
#	12683
#	25583
#	37443
#	50381
#	62961
#	76616
#	86388
#	100811
#	114276
#	125328
#	134091
#	144416
#	164086
#	176066
#	186916
#
# Disc length: 2652 seconds
#
# Revision: 0
# Processed by: cddbd v1.5.2PL0 Copyright (c) Steve Scherf et al.
# Submitted via: dBpowerAMP V4.0
#
DISCID=df0a5a10
DTITLE=Billie Jo Spears - The best of
DYEAR=1900
DGENRE=
TTITLE0=Sunshine
TTITLE1=Dallas
TTITLE2=Ease the want in me
TTITLE3=He's on the run again
TTITLE4=The creating kind
TTITLE5=One more chance
TTITLE6=Danny (Ruby baby)
TTITLE7=I'll never be free
TTITLE8=Fever
TTITLE9=If it ain't love
TTITLE10=You're my man
TTITLE11=It makes no differance now
TTITLE12=I'll take a melody
TTITLE13=My own kind
TTITLE14=I'm so lonesome I could cry
TTITLE15=What have they done to my song ma
EXTD=
EXTT0=
EXTT1=
EXTT2=
EXTT3=
EXTT4=
EXTT5=
EXTT6=
EXTT7=
EXTT8=
EXTT9=
EXTT10=
EXTT11=
EXTT12=
EXTT13=
EXTT14=
EXTT15=
PLAYORDER=
